<svg id="visual" viewBox="0 0 1920 1080" width="1920" height="1080" xmlns="http://www.w3.org/2000/svg" xmlns:xlink="http://www.w3.org/1999/xlink" version="1.1"><path d="M0 344L175 349L349 328L524 296L698 348L873 358L1047 338L1222 322L1396 301L1571 330L1745 295L1920 356L1920 0L1745 0L1571 0L1396 0L1222 0L1047 0L873 0L698 0L524 0L349 0L175 0L0 0Z" fill="#ede8db"></path><path d="M0 297L175 291L349 247L524 246L698 248L873 276L1047 289L1222 244L1396 275L1571 286L1745 238L1920 255L1920 0L1745 0L1571 0L1396 0L1222 0L1047 0L873 0L698 0L524 0L349 0L175 0L0 0Z" fill="#ebdcbb"></path><path d="M0 243L175 250L349 222L524 185L698 224L873 198L1047 233L1222 245L1396 187L1571 244L1745 252L1920 196L1920 0L1745 0L1571 0L1396 0L1222 0L1047 0L873 0L698 0L524 0L349 0L175 0L0 0Z" fill="#e9d09c"></path><path d="M0 166L175 152L349 147L524 145L698 190L873 175L1047 144L1222 173L1396 183L1571 185L1745 196L1920 178L1920 0L1745 0L1571 0L1396 0L1222 0L1047 0L873 0L698 0L524 0L349 0L175 0L0 0Z" fill="#e7c47c"></path><path d="M0 96L175 119L349 104L524 135L698 93L873 98L1047 128L1222 105L1396 117L1571 138L1745 116L1920 97L1920 0L1745 0L1571 0L1396 0L1222 0L1047 0L873 0L698 0L524 0L349 0L175 0L0 0Z" fill="#e7b65d"></path><path d="M0 42L175 72L349 57L524 37L698 45L873 72L1047 74L1222 65L1396 69L1571 66L1745 70L1920 53L1920 0L1745 0L1571 0L1396 0L1222 0L1047 0L873 0L698 0L524 0L349 0L175 0L0 0Z" fill="#e6a83c"></path></svg>