<svg id="visual" viewBox="0 0 1920 1080" width="1920" height="1080" xmlns="http://www.w3.org/2000/svg" xmlns:xlink="http://www.w3.org/1999/xlink" version="1.1"><path d="M0 734L175 729L349 750L524 782L698 730L873 720L1047 740L1222 756L1396 777L1571 748L1745 783L1920 722L1920 1081L1745 1081L1571 1081L1396 1081L1222 1081L1047 1081L873 1081L698 1081L524 1081L349 1081L175 1081L0 1081Z" fill="#ede8db"></path><path d="M0 781L175 787L349 831L524 832L698 830L873 802L1047 789L1222 834L1396 803L1571 792L1745 840L1920 823L1920 1081L1745 1081L1571 1081L1396 1081L1222 1081L1047 1081L873 1081L698 1081L524 1081L349 1081L175 1081L0 1081Z" fill="#ebdcbb"></path><path d="M0 835L175 828L349 856L524 893L698 854L873 880L1047 845L1222 833L1396 891L1571 834L1745 826L1920 882L1920 1081L1745 1081L1571 1081L1396 1081L1222 1081L1047 1081L873 1081L698 1081L524 1081L349 1081L175 1081L0 1081Z" fill="#e9d09c"></path><path d="M0 912L175 926L349 931L524 933L698 888L873 903L1047 934L1222 905L1396 895L1571 893L1745 882L1920 900L1920 1081L1745 1081L1571 1081L1396 1081L1222 1081L1047 1081L873 1081L698 1081L524 1081L349 1081L175 1081L0 1081Z" fill="#e7c47c"></path><path d="M0 982L175 959L349 974L524 943L698 985L873 980L1047 950L1222 973L1396 961L1571 940L1745 962L1920 981L1920 1081L1745 1081L1571 1081L1396 1081L1222 1081L1047 1081L873 1081L698 1081L524 1081L349 1081L175 1081L0 1081Z" fill="#e7b65d"></path><path d="M0 1036L175 1006L349 1021L524 1041L698 1033L873 1006L1047 1004L1222 1013L1396 1009L1571 1012L1745 1008L1920 1025L1920 1081L1745 1081L1571 1081L1396 1081L1222 1081L1047 1081L873 1081L698 1081L524 1081L349 1081L175 1081L0 1081Z" fill="#e6a83c"></path></svg>